{"glyphs":{"a":{"x_min":0,"x_max":358,"ha":358,"o":"m 247 188 q 246 196 253 200 q 260 203 270 203 q 280 203 290 202 q 299 200 304 199 q 318 193 323 184 q 328 174 328 157 q 328 137 324 122 q 321 107 315 89 l 305 56 q 300 33 300 24 q 300 16 306 20 q 311 23 320 34 q 328 44 339 59 q 350 74 361 90 l 360 90 q 382 131 398 166 q 415 202 423 222 q 429 229 436 230 q 443 232 449 229 q 455 226 458 219 q 462 212 460 203 l 453 186 q 444 164 430 132 q 416 101 399 69 q 388 50 374 28 q 361 5 345 -13 q 329 -31 311 -41 q 293 -51 274 -43 q 245 -28 232 -4 q 218 20 216 45 q 192 18 164 -4 q 137 -26 105 -34 q 97 -36 89 -37 q 81 -38 75 -38 q 33 -38 12 -8 q -8 21 -8 65 q -8 85 -4 106 q 0 126 8 146 q 18 169 37 199 q 56 229 84 256 q 112 283 149 301 q 186 319 231 318 q 250 317 266 306 q 281 295 292 280 q 303 265 308 248 q 313 232 312 219 q 312 214 305 211 q 298 208 290 208 q 280 208 272 212 q 263 215 263 223 q 263 226 261 232 q 259 239 256 245 q 252 251 246 256 q 241 260 234 259 q 216 258 198 246 q 180 235 163 216 q 146 198 132 174 q 117 151 107 127 q 84 73 84 42 q 84 16 101 16 q 103 16 110 18 q 116 20 121 22 l 120 22 q 152 43 181 76 q 210 109 233 141 q 237 154 243 164 q 249 174 247 188 z"},"L":{"x_min":0,"x_max":432,"ha":432,"o":"m 107 -206 q 61 -206 34 -190 q 8 -175 0 -153 q -9 -131 -1 -106 q 7 -80 30 -61 q 54 -42 91 -32 q 128 -23 177 -32 q 193 0 213 47 q 233 94 254 148 q 276 201 298 258 q 319 315 338 368 q 356 421 370 466 q 384 511 391 541 q 401 585 400 604 q 398 622 388 622 q 379 623 362 610 q 346 597 326 578 q 306 559 283 538 q 260 517 238 503 q 184 468 141 466 q 98 463 70 482 q 41 501 28 534 q 16 567 24 603 q 27 619 30 625 q 34 631 38 630 q 43 629 47 623 q 51 617 56 610 q 74 579 96 572 q 119 565 144 573 q 170 581 198 599 q 226 617 256 636 q 285 656 314 673 q 344 690 374 695 q 409 701 436 693 q 462 685 478 668 q 495 650 501 626 q 507 602 503 576 q 495 533 478 478 q 462 422 440 362 q 418 301 393 239 q 368 177 344 122 q 319 66 297 20 q 275 -25 260 -53 q 370 -83 484 -126 q 599 -169 713 -212 q 827 -254 936 -289 q 1046 -324 1144 -338 q 1243 -352 1328 -340 q 1414 -327 1479 -274 q 1483 -271 1489 -266 q 1495 -261 1500 -260 q 1505 -258 1508 -261 q 1512 -264 1512 -277 q 1512 -293 1504 -310 q 1497 -326 1485 -342 q 1473 -357 1458 -369 q 1444 -381 1432 -388 q 1359 -432 1264 -434 q 1169 -437 1062 -414 q 954 -390 840 -348 q 727 -307 616 -263 q 506 -219 404 -182 q 303 -144 220 -127 q 198 -167 168 -186 q 138 -206 107 -206 z m 143 -103 q 141 -101 130 -100 q 118 -100 106 -102 q 94 -105 86 -110 q 77 -116 80 -126 q 82 -131 90 -133 q 97 -135 106 -132 q 116 -130 126 -122 q 136 -115 143 -103 z"},"3":{"x_min":0,"x_max":813,"ha":813,"o":""},"J":{"x_min":0,"x_max":573,"ha":573,"o":"m 256 270 q 264 262 256 254 q 249 247 234 242 q 219 237 202 234 q 184 232 173 235 q 122 249 102 290 q 82 331 97 391 q 109 437 132 486 q 156 534 189 578 q 222 621 262 657 q 303 693 350 714 q 380 727 416 735 q 451 743 485 738 q 519 732 548 710 q 577 689 594 644 q 606 611 606 556 q 605 502 594 433 q 582 364 560 285 q 538 206 508 126 l 528 103 q 539 89 542 70 q 546 50 544 36 q 541 21 534 18 q 527 14 517 32 q 509 45 502 56 q 496 67 488 76 q 457 1 421 -70 q 385 -141 345 -201 q 305 -261 262 -306 q 218 -352 173 -376 q 128 -400 83 -398 q 38 -397 -6 -364 q -29 -347 -40 -322 q -52 -297 -56 -270 q -59 -242 -56 -213 q -54 -184 -48 -159 q -33 -94 0 -36 q 32 23 78 68 q 125 114 184 144 q 244 174 312 182 q 342 186 366 186 q 391 185 411 181 q 438 251 459 319 q 480 387 494 446 q 508 505 514 552 q 519 598 514 626 q 509 651 492 659 q 476 667 454 664 q 433 662 410 653 q 388 644 373 635 q 306 594 268 538 q 229 481 209 406 q 198 364 206 328 q 215 291 256 270 z m 41 -323 q 66 -335 94 -324 q 122 -314 152 -286 q 182 -258 212 -214 q 243 -171 274 -118 q 304 -65 332 -4 q 361 57 387 120 q 383 121 379 121 q 375 121 370 121 q 312 122 260 105 q 209 88 166 57 q 123 26 90 -18 q 56 -61 35 -115 q 29 -131 21 -162 q 13 -192 10 -224 q 7 -257 13 -285 q 19 -313 41 -323 z"},"V":{"x_min":0,"x_max":688,"ha":688,"o":"m 235 538 q 182 509 140 506 q 99 502 70 517 q 42 532 26 562 q 11 591 10 628 q 9 655 17 656 q 25 656 37 642 q 54 622 84 616 q 114 611 151 615 q 188 619 230 630 q 272 640 312 651 q 353 662 390 671 q 427 680 454 682 q 482 683 498 674 q 513 664 511 638 q 509 617 498 578 q 488 540 472 491 q 456 442 437 385 q 418 328 400 271 q 381 214 365 160 q 349 107 339 63 q 329 19 328 -12 q 327 -43 338 -53 q 347 -61 366 -41 q 385 -21 408 14 q 431 50 456 94 q 481 139 502 180 q 524 220 538 250 q 553 279 556 285 q 603 385 648 482 q 693 579 732 673 q 739 683 753 673 q 767 663 780 644 q 793 626 802 605 q 810 584 805 573 q 772 500 738 424 q 704 349 669 276 q 634 202 598 134 q 562 66 526 8 q 514 -12 498 -38 q 481 -64 460 -86 q 439 -108 414 -122 q 390 -135 362 -129 q 342 -124 322 -107 q 301 -90 284 -73 q 258 -46 248 -7 q 238 32 240 79 q 242 126 254 179 q 265 232 281 287 q 297 342 316 397 q 335 452 352 503 q 371 559 368 578 q 364 598 346 596 q 328 593 298 575 q 269 557 235 538 z"},"7":{"x_min":0,"x_max":813,"ha":813,"o":""},"S":{"x_min":0,"x_max":510,"ha":510,"o":"m 406 331 q 394 325 385 319 q 376 313 370 314 q 365 315 365 324 q 365 334 371 358 q 379 391 394 406 q 410 420 430 432 q 475 459 498 486 q 522 512 526 534 q 529 555 512 568 q 496 582 461 581 q 430 580 400 574 q 371 567 345 556 q 319 546 298 532 q 277 519 264 505 q 227 466 218 436 q 208 405 216 380 q 225 356 248 335 q 270 314 299 294 q 338 267 380 240 q 422 212 452 181 q 481 150 489 114 q 497 77 467 32 q 456 15 446 2 q 435 -11 424 -21 q 413 -31 400 -40 q 388 -49 373 -59 q 325 -89 273 -92 q 221 -95 177 -78 q 133 -60 104 -26 q 74 7 71 50 q 69 73 68 88 q 68 104 73 118 q 78 131 92 146 q 107 160 136 180 q 155 193 162 193 q 168 193 168 186 q 168 179 164 168 q 160 157 159 150 q 150 106 162 68 q 174 30 200 7 q 225 -16 260 -20 q 296 -25 332 -3 q 359 13 368 34 q 378 54 374 76 q 371 98 355 118 q 339 139 315 156 q 289 173 258 192 q 226 212 196 234 q 166 257 141 284 q 116 311 103 344 q 90 376 92 416 q 95 455 121 503 q 146 550 184 586 q 223 621 268 644 q 314 668 362 679 q 411 690 458 687 q 486 685 512 671 q 539 657 560 635 q 580 613 594 585 q 608 557 610 528 q 613 498 604 468 q 594 438 568 413 q 553 399 534 389 q 515 379 494 370 q 472 361 450 352 q 427 343 406 331 z"},"Z":{"x_min":0,"x_max":547,"ha":547,"o":"m 594 656 q 599 648 607 630 q 615 613 620 591 q 626 569 628 544 q 629 519 620 497 q 608 464 572 418 q 537 371 489 318 q 441 264 385 208 q 329 153 278 103 q 226 53 184 12 q 142 -28 120 -51 q 107 -65 105 -74 q 103 -83 111 -80 q 113 -79 135 -75 q 157 -71 190 -64 q 222 -58 260 -51 q 299 -44 336 -38 q 372 -33 402 -29 q 432 -25 446 -25 q 466 -25 480 -32 q 495 -38 506 -48 q 516 -58 522 -70 q 529 -81 532 -91 q 536 -103 534 -108 q 532 -112 526 -114 q 520 -115 511 -114 q 502 -114 493 -115 q 459 -119 402 -124 q 346 -128 286 -134 q 227 -140 176 -148 q 124 -157 100 -169 q 74 -170 54 -154 q 34 -137 22 -115 q 10 -93 6 -71 q 3 -49 9 -39 q 28 -11 67 32 q 106 75 156 126 q 206 178 262 235 q 319 292 374 348 q 428 404 476 457 q 524 510 556 553 q 578 582 570 590 q 562 598 536 592 q 509 587 470 572 q 431 556 390 538 q 349 519 313 501 q 277 483 256 473 q 202 447 157 448 q 112 449 80 468 q 48 488 30 520 q 12 553 11 590 q 10 617 18 618 q 26 618 38 604 q 55 584 86 580 q 116 575 155 580 q 194 586 238 600 q 282 613 327 628 q 372 642 415 656 q 458 669 494 676 q 530 682 556 678 q 582 675 594 656 z"},"x":{"x_min":0,"x_max":348,"ha":348,"o":"m 258 303 q 264 309 274 312 q 283 315 291 315 q 303 315 310 308 q 316 302 311 287 q 282 243 254 206 q 227 168 198 129 q 206 109 214 92 q 222 74 228 66 q 239 49 248 39 q 257 29 272 30 q 289 30 302 40 q 316 49 326 61 q 338 76 350 96 q 362 116 374 138 q 385 159 394 181 q 404 203 412 222 q 418 229 425 230 q 432 232 438 229 q 444 226 448 219 q 451 212 449 202 l 439 179 q 423 139 405 99 q 387 59 363 25 q 341 -6 317 -28 q 293 -49 257 -57 q 252 -58 245 -58 q 238 -59 233 -59 q 209 -59 185 -46 q 161 -34 146 -5 l 126 35 l 124 32 q 107 9 90 -14 q 74 -37 57 -62 q 50 -71 42 -72 q 33 -74 26 -70 q 19 -67 16 -60 q 14 -52 19 -42 l 41 -10 l 98 72 l 97 72 l 103 77 l 103 78 q 103 78 105 82 q 92 111 84 131 q 76 151 71 166 q 70 169 68 173 q 66 177 66 179 l 56 203 q 58 210 63 222 q 68 234 74 246 q 81 259 88 272 q 96 284 105 292 l 104 292 q 120 309 130 301 q 141 293 152 261 l 177 183 l 198 213 q 213 233 228 256 q 243 278 259 302 l 258 302 z"},"v":{"x_min":0,"x_max":274,"ha":274,"o":"m 144 220 q 130 172 123 135 q 116 98 116 60 q 116 40 121 32 q 126 23 134 23 q 143 23 154 33 q 165 43 175 58 q 185 72 194 87 q 202 102 208 112 q 186 124 178 142 q 170 159 170 178 q 170 193 177 208 q 184 223 194 234 q 204 246 216 254 q 229 261 240 261 q 257 261 269 245 q 281 229 281 189 q 279 176 278 172 q 277 169 273 158 q 299 166 313 180 q 327 194 339 222 q 345 229 352 230 q 359 232 365 229 q 371 226 374 219 q 377 212 376 202 q 361 158 330 130 q 300 103 249 101 q 240 84 228 64 q 216 45 204 26 q 192 8 180 -8 q 169 -23 160 -30 q 147 -41 135 -45 q 123 -49 112 -49 q 95 -49 80 -38 q 65 -28 54 -11 q 43 6 36 27 q 30 48 29 69 q 29 118 34 166 q 39 215 54 266 q 62 297 61 300 q 60 308 69 312 q 78 315 92 315 q 118 315 134 300 q 149 284 149 256 q 149 245 148 236 q 146 228 144 220 z"},"O":{"x_min":0,"x_max":564,"ha":564,"o":"m 47 242 q 55 285 68 322 q 60 319 52 318 q 45 316 39 315 q 16 311 11 320 q 6 330 12 349 q 22 384 43 426 q 64 469 95 512 q 126 554 166 592 q 206 630 254 657 q 301 684 354 695 q 408 706 467 694 q 523 682 556 650 q 589 618 604 573 q 619 528 619 474 q 619 421 608 367 q 598 313 580 262 q 561 212 540 173 q 522 140 499 104 q 476 68 448 34 q 420 1 388 -28 q 357 -56 322 -74 q 287 -91 248 -96 q 210 -101 170 -87 q 129 -73 100 -39 q 72 -5 56 40 q 41 85 38 138 q 36 190 47 242 z m 419 624 q 381 624 341 601 q 301 578 264 543 q 288 543 308 538 q 328 534 333 525 q 261 458 210 375 q 160 292 136 202 q 131 185 128 161 q 125 137 125 112 q 125 86 129 61 q 133 36 142 17 q 152 -2 168 -13 q 183 -24 207 -21 q 242 -17 280 13 q 317 43 352 89 q 386 135 416 192 q 447 250 469 310 q 491 369 502 426 q 513 482 508 526 q 504 570 483 597 q 462 624 419 624 z"},"C":{"x_min":0,"x_max":477,"ha":477,"o":"m 417 291 q 407 282 398 280 q 390 278 386 281 q 381 284 381 292 q 381 299 389 309 q 397 319 413 344 q 429 369 446 400 q 462 432 476 466 q 490 499 494 528 q 497 556 486 574 q 476 592 444 593 q 413 594 378 568 q 343 541 308 498 q 274 454 242 398 q 209 342 184 282 q 160 222 146 163 q 131 104 132 56 q 132 7 150 -26 q 167 -60 207 -69 q 237 -76 269 -64 q 301 -52 332 -29 q 364 -6 394 26 q 424 57 450 90 q 476 123 496 154 q 516 184 528 206 q 534 217 542 220 q 550 223 556 220 q 561 217 563 208 q 565 200 559 188 q 545 158 523 123 q 501 88 472 53 q 444 18 410 -14 q 377 -47 340 -72 q 303 -96 264 -110 q 224 -125 185 -123 q 117 -121 80 -84 q 42 -48 29 10 q 16 68 25 140 q 34 213 60 288 q 86 363 126 434 q 167 505 216 559 q 266 613 322 644 q 378 675 435 670 q 488 665 516 642 q 545 619 554 585 q 562 551 554 510 q 545 469 526 428 q 506 388 478 352 q 449 315 417 291 z"},"W":{"x_min":0,"x_max":1000,"ha":1000,"o":"m 232 535 q 175 503 134 500 q 92 497 64 512 q 36 528 23 559 q 10 590 10 628 q 10 655 18 656 q 25 656 37 642 q 54 622 84 616 q 114 611 151 615 q 188 619 230 630 q 272 640 312 651 q 353 662 390 671 q 427 680 454 682 q 482 683 498 674 q 513 664 511 638 q 509 617 498 578 q 488 540 472 491 q 456 442 437 385 q 418 328 400 271 q 381 214 365 160 q 349 107 339 63 q 329 19 328 -12 q 327 -43 338 -53 q 347 -61 366 -40 q 385 -20 408 16 q 432 51 458 96 q 483 141 504 182 q 526 222 541 252 q 556 282 559 288 q 653 489 732 673 q 739 683 753 673 q 767 663 780 644 q 793 626 802 605 q 810 584 805 573 l 797 560 l 800 560 q 787 514 766 454 q 746 394 724 330 q 703 265 683 202 q 663 138 650 86 q 638 33 634 -4 q 631 -42 644 -53 q 653 -61 672 -41 q 691 -21 714 14 q 737 50 762 94 q 787 139 808 180 q 830 220 844 250 q 859 279 862 285 q 909 385 954 482 q 999 579 1038 673 q 1045 683 1059 673 q 1073 663 1086 644 q 1099 626 1108 605 q 1116 584 1111 573 q 1078 500 1044 424 q 1010 349 975 276 q 940 202 904 134 q 868 66 832 8 q 820 -12 804 -38 q 787 -64 766 -86 q 745 -108 720 -122 q 696 -135 668 -129 q 648 -124 628 -107 q 607 -90 590 -73 q 555 -37 548 17 q 542 71 553 137 q 523 77 492 24 q 462 -29 434 -65 q 405 -101 380 -116 q 355 -132 335 -118 q 326 -112 320 -108 q 315 -104 310 -100 q 305 -95 299 -89 q 293 -83 284 -73 q 260 -47 251 -8 q 242 31 244 78 q 246 124 256 178 q 267 231 282 286 q 298 341 316 396 q 335 452 352 503 q 371 559 368 578 q 364 597 345 594 q 326 591 296 572 q 266 554 232 535 z"},"A":{"x_min":0,"x_max":972,"ha":972,"o":"m 943 231 q 957 232 968 230 q 979 229 976 216 q 971 198 954 190 q 936 182 907 179 q 903 178 895 178 q 876 103 863 26 q 850 -52 852 -118 q 853 -184 874 -232 q 894 -279 942 -294 q 960 -302 960 -312 q 960 -321 950 -330 q 941 -338 926 -338 q 876 -337 842 -316 q 809 -296 789 -260 q 769 -225 762 -178 q 754 -130 756 -74 q 757 -19 766 42 q 776 103 790 166 q 696 154 609 138 q 588 111 566 84 q 545 58 522 32 q 493 -2 456 -36 q 420 -69 379 -96 q 338 -122 293 -138 q 248 -155 203 -153 q 163 -152 130 -138 q 97 -125 74 -103 q 52 -81 44 -52 q 35 -23 44 10 q 63 78 111 120 q 159 162 229 178 q 251 183 258 172 q 264 161 240 144 q 214 131 193 110 q 172 90 158 66 q 144 43 139 19 q 134 -5 140 -24 q 146 -44 164 -58 q 182 -71 215 -73 q 235 -75 259 -71 q 283 -67 308 -58 q 334 -48 359 -33 q 384 -18 406 2 q 432 26 459 56 q 486 85 514 118 l 475 109 q 467 107 458 106 q 450 104 444 106 q 437 107 435 113 q 433 119 438 131 q 446 148 453 162 q 460 175 482 180 q 505 186 529 190 q 553 195 579 200 q 618 251 656 304 q 694 358 729 408 q 764 459 796 505 q 827 551 853 587 q 847 594 834 593 q 821 592 804 585 q 786 578 766 567 q 746 556 725 544 q 671 514 626 510 q 581 506 550 520 q 519 535 504 564 q 488 593 493 629 q 495 645 499 652 q 503 658 508 657 q 512 656 517 650 q 522 644 525 636 q 534 614 558 607 q 581 600 613 602 q 645 605 683 614 q 721 623 760 634 q 799 646 836 657 q 872 668 901 673 q 924 677 936 680 q 947 683 959 678 q 965 676 975 666 q 985 655 994 642 q 1003 628 1010 615 q 1017 602 1017 595 q 1008 550 992 497 q 975 444 958 390 q 947 358 934 317 q 921 276 908 229 q 917 229 926 230 q 934 230 943 231 z m 908 555 q 845 470 786 384 q 727 297 664 211 q 699 215 734 218 q 768 221 803 223 q 827 317 856 403 q 884 489 908 555 z"},"f":{"x_min":0,"x_max":221,"ha":221,"o":"m -7 -244 q -11 -224 -11 -177 q -11 -134 -6 -74 q 0 -13 12 55 q 23 123 40 196 q 58 269 83 339 q 108 409 140 470 q 172 532 212 579 q 227 594 244 601 q 261 608 276 605 q 291 602 302 588 q 313 575 316 549 q 313 502 298 442 q 284 382 260 324 q 235 267 200 219 q 165 171 122 148 q 120 144 118 134 q 116 125 114 112 q 143 119 170 127 q 196 135 218 146 q 241 158 258 176 q 276 193 287 220 q 293 229 302 230 q 310 231 316 226 q 322 222 324 214 q 327 205 322 196 q 296 141 244 110 q 192 80 126 69 l 131 62 q 135 56 138 52 q 140 48 143 45 q 157 25 172 -5 q 187 -35 187 -87 q 187 -125 178 -166 q 169 -206 152 -240 q 135 -275 112 -299 q 88 -323 59 -328 q 25 -333 13 -311 q 1 -289 -7 -244 z m 86 -257 q 96 -257 107 -238 q 118 -220 126 -194 q 134 -167 140 -138 q 145 -110 145 -90 q 145 -50 130 -18 q 115 13 100 36 q 88 -39 82 -102 q 77 -164 77 -203 q 78 -236 80 -246 q 82 -257 86 -257 z m 263 513 q 221 449 191 372 q 161 296 139 218 q 159 240 178 276 q 198 311 216 352 q 233 393 246 435 q 260 477 268 512 q 268 514 267 516 q 266 519 263 513 z"},"Q":{"x_min":0,"x_max":564,"ha":564,"o":"m 126 -150 q 114 -155 95 -152 q 76 -149 60 -142 q 45 -135 38 -126 q 30 -116 41 -109 q 64 -99 92 -92 q 121 -84 153 -80 q 116 -62 91 -28 q 66 6 52 50 q 39 93 38 142 q 36 192 47 242 q 55 285 68 322 q 60 319 52 318 q 45 316 39 315 q 16 311 11 320 q 6 330 12 349 q 22 384 43 426 q 64 469 95 512 q 126 554 166 592 q 206 630 254 657 q 301 684 354 695 q 408 706 467 694 q 523 682 556 650 q 589 618 604 573 q 619 528 619 474 q 619 421 608 367 q 598 313 580 262 q 561 212 540 173 q 519 135 492 94 q 465 53 432 16 q 400 -21 362 -50 q 324 -78 282 -90 q 308 -101 332 -121 q 356 -141 380 -165 q 403 -189 426 -214 q 449 -238 474 -258 q 498 -279 524 -292 q 550 -305 580 -306 q 615 -307 638 -302 q 662 -297 690 -288 q 701 -285 698 -298 q 694 -310 682 -328 q 669 -347 650 -366 q 630 -385 609 -393 q 564 -410 528 -405 q 493 -400 464 -380 q 435 -361 410 -332 q 385 -302 361 -270 q 337 -238 313 -209 q 289 -180 262 -160 q 234 -141 201 -136 q 168 -132 126 -150 z m 419 624 q 381 624 341 601 q 301 578 264 543 q 288 543 308 538 q 328 534 333 525 q 261 458 210 375 q 160 292 136 202 q 131 185 128 161 q 125 137 125 112 q 125 86 129 61 q 133 36 142 17 q 152 -2 168 -13 q 183 -24 207 -21 q 242 -17 280 13 q 317 43 352 89 q 386 135 416 192 q 447 250 469 310 q 491 369 502 426 q 513 482 508 526 q 504 570 483 597 q 462 624 419 624 z"},"w":{"x_min":0,"x_max":447,"ha":447,"o":"m 316 220 q 302 172 295 135 q 288 98 288 60 q 289 23 306 23 q 312 23 321 32 q 330 40 340 53 q 350 66 360 82 q 371 97 380 112 q 362 117 352 136 q 343 154 343 176 q 343 204 359 230 q 375 255 405 260 q 428 262 439 242 q 450 223 450 198 q 450 187 449 178 q 448 168 446 160 q 459 166 469 172 q 479 178 486 184 q 494 191 500 200 q 506 209 511 222 q 517 229 524 231 q 531 233 537 230 q 543 227 546 220 q 549 213 548 203 q 534 161 509 140 q 484 120 446 107 l 447 107 q 431 102 421 101 q 412 84 400 64 q 388 44 376 26 q 364 7 352 -8 q 341 -23 332 -30 q 319 -41 308 -45 q 296 -49 285 -49 q 267 -49 252 -38 q 237 -28 226 -11 q 215 6 208 27 q 202 48 201 70 q 201 73 200 70 q 200 68 200 66 q 200 64 200 66 q 200 67 200 77 q 190 54 176 30 q 163 5 147 -14 q 131 -33 112 -42 q 94 -52 75 -44 q 44 -29 28 -2 q 12 25 12 56 q 12 64 13 72 q 14 79 16 87 q 18 100 26 126 q 33 153 41 182 q 47 202 52 222 q 57 241 62 258 q 66 274 68 286 q 70 297 70 300 q 69 308 78 312 q 88 315 102 315 q 108 315 115 314 q 122 313 127 311 q 145 304 152 291 q 158 278 158 263 q 158 255 156 244 q 154 232 148 210 q 142 188 131 151 q 120 114 103 56 q 97 35 97 23 q 97 15 104 19 q 110 23 120 34 q 129 44 140 60 q 150 75 159 90 q 173 116 186 142 q 199 169 207 187 l 218 231 q 223 250 228 270 q 233 289 233 300 q 231 308 241 312 q 251 315 265 315 q 279 315 290 311 q 307 304 314 290 q 321 275 321 259 q 321 249 320 238 q 318 228 316 220 z"},"E":{"x_min":0,"x_max":484,"ha":484,"o":"m 605 582 q 609 549 598 514 q 586 479 564 448 q 542 416 512 392 q 482 369 450 359 q 426 352 420 356 q 414 360 418 369 q 421 378 430 388 q 438 399 444 406 q 466 432 478 459 q 490 486 497 501 q 518 547 498 562 q 479 576 425 562 q 404 557 373 544 q 342 531 311 511 q 280 491 254 466 q 228 440 218 409 q 212 391 214 372 q 215 352 224 334 q 232 316 248 302 q 263 287 286 280 q 299 283 318 287 q 338 291 356 291 q 374 291 387 286 q 400 280 400 264 q 400 241 390 226 q 380 212 366 203 q 352 194 337 191 q 322 188 310 190 q 303 191 296 192 q 290 193 284 195 q 257 183 231 166 q 205 148 184 126 q 164 104 150 78 q 137 52 134 22 q 131 -8 144 -24 q 156 -39 176 -44 q 196 -49 221 -46 q 246 -44 267 -36 q 304 -25 347 0 q 390 26 430 60 q 469 93 502 131 q 534 169 552 205 q 558 217 566 220 q 574 224 580 221 q 586 218 588 210 q 591 203 585 193 q 561 152 532 111 q 504 70 467 32 q 430 -7 384 -42 q 338 -77 279 -105 q 244 -122 208 -126 q 173 -129 142 -122 q 110 -116 85 -99 q 60 -82 47 -57 q 40 -44 34 -26 q 29 -8 28 13 q 26 34 30 58 q 35 82 47 107 q 69 151 110 187 q 152 223 197 246 l 178 264 q 141 297 129 338 q 117 380 126 424 q 134 468 161 510 q 188 553 229 587 q 270 621 322 644 q 375 666 435 670 q 454 671 482 668 q 510 665 536 655 q 562 645 582 628 q 601 610 605 582 z"},"s":{"x_min":0,"x_max":249,"ha":249,"o":"m 202 29 q 197 17 193 8 q 189 0 181 -10 q 164 -29 133 -39 q 102 -49 73 -49 q 60 -49 50 -48 q 39 -46 32 -41 q 10 -27 12 -10 q 15 6 30 21 q 45 36 66 47 q 87 58 103 61 q 96 77 89 91 q 82 105 75 119 q 65 139 55 160 q 45 182 35 208 q 32 217 29 230 q 26 242 26 252 q 26 270 31 291 q 36 312 46 330 q 57 349 73 362 q 89 376 111 381 q 136 386 150 372 q 163 358 163 340 q 163 328 160 314 q 156 300 151 286 q 146 273 139 262 q 132 250 126 242 q 151 200 172 158 q 192 117 200 85 q 235 105 264 140 q 292 176 309 212 q 313 220 321 222 q 329 224 336 222 q 344 219 348 213 q 353 207 350 198 q 339 165 322 139 q 304 113 284 93 q 264 73 242 57 q 221 41 202 29 z"},"l":{"x_min":0,"x_max":221,"ha":221,"o":"m 285 211 q 293 233 307 233 q 317 233 323 222 q 329 212 326 198 q 312 141 287 92 q 262 44 239 10 q 220 -19 196 -34 q 172 -49 148 -49 q 110 -49 80 -15 q 50 19 44 88 q 39 145 47 212 q 55 278 75 344 q 95 411 128 472 q 160 533 204 580 q 217 593 231 600 q 245 606 257 606 q 280 606 294 591 q 308 576 309 545 q 309 502 298 458 q 286 413 265 372 q 244 332 214 300 q 185 267 150 249 q 139 204 134 156 q 130 109 132 58 q 133 38 140 29 q 146 20 156 20 q 180 20 206 52 q 210 57 218 66 q 225 75 234 92 q 244 110 257 138 q 270 167 285 211 z m 260 515 q 232 469 208 420 q 184 371 166 316 q 184 332 200 354 q 216 377 228 403 q 241 429 250 456 q 260 484 266 510 q 267 515 266 518 q 265 521 261 515 z"},"8":{"x_min":0,"x_max":813,"ha":813,"o":""},"e":{"x_min":0,"x_max":304,"ha":304,"o":"m 160 307 q 188 320 217 320 q 237 320 257 314 q 277 308 292 296 q 307 284 316 266 q 324 247 321 222 q 311 167 281 136 q 251 105 210 87 q 181 74 152 66 q 123 58 99 54 q 101 34 114 20 q 127 5 146 5 q 179 5 212 24 q 244 42 272 72 q 301 101 325 139 q 349 177 365 216 q 369 226 376 230 q 384 233 390 231 q 397 229 402 222 q 406 215 404 205 q 398 165 374 121 q 350 77 313 40 q 276 3 228 -22 q 180 -47 125 -49 q 60 -51 26 -14 q -8 22 0 87 q 4 124 18 158 q 33 193 55 222 q 77 250 104 272 q 131 294 160 307 z m 191 131 q 205 138 219 148 q 233 158 244 170 q 254 183 260 198 q 266 212 266 227 q 265 251 248 256 q 230 261 207 244 q 165 215 144 182 q 122 149 109 105 q 130 109 152 116 q 173 123 191 131 z"},"b":{"x_min":0,"x_max":241,"ha":241,"o":"m 325 547 q 326 542 326 536 q 326 530 326 525 q 326 480 313 436 q 300 392 276 355 q 251 318 216 292 q 182 265 140 256 q 132 230 125 194 q 118 159 113 123 q 112 117 111 102 q 110 86 110 70 q 109 54 110 42 q 110 30 113 30 q 116 30 122 38 q 128 45 134 56 q 141 66 148 78 q 155 91 161 101 l 168 112 q 154 129 148 145 q 143 161 143 175 q 143 193 150 209 q 157 225 168 237 q 178 249 190 256 q 203 263 214 263 q 228 263 238 253 q 248 243 248 220 q 248 209 246 194 q 243 178 238 159 q 262 167 278 180 q 294 194 305 222 q 311 229 318 230 q 325 232 331 229 q 337 226 340 219 q 344 212 343 203 q 327 161 296 132 q 264 103 216 101 q 207 84 197 64 q 187 45 176 26 q 166 8 156 -7 q 145 -22 135 -29 q 109 -49 90 -49 q 74 -49 62 -38 q 50 -28 42 -11 q 33 6 28 27 q 22 48 21 69 q 21 197 64 318 q 108 439 190 548 q 210 573 234 586 q 257 600 277 600 q 297 600 310 588 q 323 575 325 547 z m 285 529 q 262 499 243 472 q 224 445 208 419 q 192 393 180 367 q 167 341 156 312 q 186 324 210 348 q 234 371 250 400 q 267 430 276 464 q 285 497 285 529 z"},"m":{"x_min":0,"x_max":473,"ha":473,"o":"m 239 -53 q 225 -56 210 -52 q 194 -48 182 -38 q 169 -28 162 -12 q 154 3 157 23 q 160 40 166 60 q 171 81 178 102 q 184 124 191 144 q 198 164 204 181 q 209 188 211 195 q 213 202 213 208 q 213 227 204 227 q 196 227 183 214 q 157 192 142 166 q 128 141 123 129 q 118 112 112 92 q 107 73 102 54 q 98 34 96 16 q 93 -3 93 -18 q 93 -43 97 -48 q 80 -51 61 -48 q 42 -45 28 -36 q 13 -27 5 -12 q -3 3 2 25 q 4 34 8 49 q 11 64 16 81 q 20 98 25 116 q 30 134 34 149 q 40 173 46 198 q 53 223 58 244 q 64 266 67 281 q 70 296 70 300 q 68 308 78 312 q 87 315 101 315 q 115 315 126 311 q 143 304 150 290 q 157 276 158 259 l 172 270 q 189 281 206 286 q 223 292 240 292 q 263 292 280 282 q 297 271 303 248 q 315 260 330 270 q 347 281 364 286 q 381 292 398 292 q 426 292 444 276 q 463 261 463 226 q 463 218 462 210 q 461 202 459 194 q 457 185 453 174 q 449 164 445 151 q 434 118 424 80 q 413 43 413 21 q 413 12 420 18 q 427 23 436 36 q 446 48 456 64 q 466 80 472 92 q 489 125 507 161 q 525 197 536 220 q 540 227 548 228 q 555 230 562 226 q 568 223 572 216 q 576 210 574 201 q 571 191 564 176 q 558 161 550 144 q 541 126 532 106 q 522 87 513 69 l 508 60 q 499 44 486 23 q 474 2 459 -16 q 444 -34 426 -43 q 409 -52 391 -44 q 355 -27 342 0 q 328 28 328 57 q 328 84 337 112 q 346 141 357 172 q 362 184 364 194 q 365 203 365 211 q 365 227 361 227 q 354 227 341 214 q 321 197 307 178 q 293 160 289 146 q 287 138 282 125 q 277 112 272 98 q 261 70 252 40 q 242 9 242 -18 q 242 -20 242 -22 q 243 -24 243 -27 q 244 -31 244 -38 q 244 -44 244 -53 z"},"n":{"x_min":0,"x_max":312,"ha":312,"o":"m 79 -47 q 64 -50 48 -46 q 33 -43 21 -33 q 9 -23 2 -8 q -4 7 -1 28 q 1 42 10 72 q 18 103 27 136 q 34 163 42 190 q 49 217 55 240 q 61 262 64 278 q 67 295 66 300 q 65 308 74 312 q 84 315 98 315 q 112 315 123 311 q 139 306 146 292 q 153 279 155 259 q 163 267 169 270 q 201 292 238 292 q 272 292 287 272 q 302 251 302 225 q 302 218 301 210 q 300 202 297 194 l 298 194 q 296 187 294 181 q 292 175 291 168 l 279 129 q 278 126 278 122 q 277 119 272 108 l 273 108 l 258 56 q 252 32 252 21 q 252 12 259 18 q 266 23 276 36 q 285 48 295 64 q 305 80 311 92 q 328 125 346 161 q 364 197 374 220 q 378 227 386 228 q 393 230 400 226 q 407 223 412 216 q 416 210 413 201 q 406 180 388 142 q 370 105 346 60 q 338 44 326 23 q 313 2 298 -16 q 283 -34 266 -43 q 248 -52 230 -44 q 193 -27 180 0 q 168 28 168 57 q 168 65 168 72 q 169 80 170 86 q 174 104 180 124 q 186 143 193 162 l 192 162 q 193 164 194 164 q 194 164 194 166 q 205 199 205 210 q 205 227 200 227 q 193 227 184 218 q 154 192 140 166 q 125 141 120 129 q 113 106 106 80 q 98 54 92 30 q 87 5 84 -16 q 81 -36 84 -47 z"},"h":{"x_min":0,"x_max":310,"ha":310,"o":"m 110 101 q 103 73 96 42 q 89 11 89 -13 q 89 -39 96 -47 q 78 -50 59 -47 q 40 -44 25 -35 q 10 -26 2 -11 q -6 4 -1 26 q 12 92 30 168 q 49 243 76 318 q 103 393 140 461 q 178 529 230 580 q 246 595 263 600 q 280 606 295 602 q 310 598 320 584 q 331 570 333 545 q 330 501 316 459 q 301 417 278 381 q 255 345 225 318 q 195 291 161 278 q 158 272 156 267 q 155 262 153 259 q 170 273 192 282 q 213 291 237 291 q 258 291 272 283 q 285 275 292 262 q 300 248 301 230 q 302 213 297 194 q 290 171 284 152 q 279 133 274 116 q 270 100 266 86 q 261 71 257 56 q 251 32 252 24 q 254 16 259 18 q 264 20 272 30 q 279 41 287 53 q 295 65 301 76 q 307 87 310 92 q 327 125 345 161 q 363 197 374 220 q 378 227 386 228 q 393 230 400 226 q 406 223 410 216 q 415 210 412 201 q 405 180 387 142 q 369 105 346 60 q 337 44 325 23 q 313 2 298 -16 q 283 -34 266 -43 q 248 -52 229 -44 q 197 -29 182 -2 q 167 25 167 57 q 167 89 176 122 q 186 154 200 185 q 203 193 206 202 q 209 212 208 218 q 207 225 202 226 q 197 227 184 218 q 157 195 139 165 q 121 135 110 101 z m 282 515 q 255 474 230 432 q 205 390 185 343 q 219 370 246 415 q 273 460 287 510 q 289 515 288 518 q 287 521 283 515 z"},"z":{"x_min":0,"x_max":274,"ha":274,"o":"m 138 308 q 134 292 132 276 q 129 259 124 245 l 176 243 l 175 243 q 219 241 242 221 q 266 201 266 170 q 266 157 262 144 q 258 131 251 118 q 247 111 242 104 q 237 96 231 88 l 230 88 q 237 83 240 76 q 269 108 294 143 q 320 178 343 226 q 346 232 354 232 q 361 231 368 227 q 376 223 381 218 q 386 212 383 206 q 357 152 324 109 q 290 66 253 29 l 255 29 q 256 24 256 19 q 257 14 257 6 q 257 -33 242 -80 q 227 -128 204 -172 q 181 -217 154 -253 q 128 -289 105 -306 q 71 -329 46 -329 q 15 -329 -3 -302 q -21 -275 -21 -236 q -21 -203 -5 -164 q 11 -126 42 -96 q 57 -82 72 -70 q 87 -57 101 -46 l 100 -46 l 119 -30 q 132 -20 144 -10 q 157 -1 168 10 l 166 10 q 167 13 167 18 q 167 22 167 27 q 149 12 124 3 q 98 -6 75 -6 q 55 -6 42 1 q 28 8 27 23 q 25 38 36 49 q 48 60 65 68 q 82 75 101 80 q 120 84 135 86 q 142 96 152 118 q 161 139 161 159 q 161 171 156 179 q 152 187 142 188 q 121 190 98 194 q 76 198 57 208 q 38 217 26 233 q 14 249 13 274 q 12 295 21 316 q 30 336 44 352 q 57 369 72 379 q 88 389 101 389 q 113 389 122 380 q 130 372 134 359 q 139 346 140 332 q 140 318 138 308 z m 79 -186 q 84 -178 92 -165 q 99 -152 108 -136 q 117 -120 126 -102 q 136 -85 144 -67 q 121 -86 100 -104 q 78 -122 62 -140 q 41 -163 30 -190 q 20 -217 20 -235 q 20 -246 25 -246 q 32 -246 44 -234 q 57 -221 77 -190 l 76 -190 z"},"B":{"x_min":0,"x_max":660,"ha":660,"o":"m 117 330 q 119 316 112 312 q 106 309 89 314 q 59 322 43 347 q 27 372 24 403 q 21 434 30 465 q 39 496 59 517 q 96 571 159 608 q 222 646 295 666 q 368 685 443 688 q 518 690 580 674 q 641 658 682 624 q 723 591 727 539 q 730 503 714 462 q 699 421 670 382 q 641 343 600 308 q 560 274 514 251 l 532 245 q 576 227 594 198 q 612 169 608 134 q 604 99 582 62 q 559 24 523 -10 q 487 -45 440 -73 q 394 -101 342 -117 q 289 -133 233 -134 q 177 -135 124 -115 q 73 -95 55 -60 q 37 -25 48 23 q 49 27 52 36 q 56 45 60 52 q 65 59 70 60 q 74 60 78 47 q 83 31 92 18 q 101 6 111 -2 q 121 -11 130 -16 q 139 -22 144 -24 q 179 -41 224 -40 q 269 -40 315 -28 q 361 -16 404 5 q 448 26 480 52 q 512 78 528 106 q 545 134 538 159 q 531 181 493 196 q 455 211 403 219 q 396 218 390 218 q 383 218 376 218 l 364 218 q 348 152 340 102 q 332 52 335 12 q 332 5 315 8 q 298 11 279 18 q 260 26 244 36 q 229 46 229 54 q 231 104 237 150 q 243 195 253 237 q 226 248 208 271 q 189 294 184 334 q 183 344 184 356 q 186 368 189 374 q 192 381 196 379 q 200 377 205 359 q 210 336 225 320 q 240 305 269 297 q 290 371 311 430 q 332 488 338 533 q 342 539 357 532 q 372 525 388 513 q 405 501 418 488 q 430 474 429 467 q 416 417 404 374 q 393 331 383 292 l 407 295 q 449 304 487 327 q 525 350 554 382 q 583 414 600 452 q 618 491 620 532 q 621 565 609 584 q 597 602 578 610 q 559 618 537 618 q 515 619 496 617 q 433 610 368 586 q 302 562 248 524 q 194 487 158 438 q 122 388 117 330 z"},"K":{"x_min":0,"x_max":634,"ha":634,"o":"m 288 -62 q 285 -74 285 -84 q 285 -94 282 -100 q 280 -105 274 -104 q 269 -104 256 -94 q 217 -65 198 -41 q 178 -17 184 9 q 186 34 193 73 q 200 112 210 158 q 221 204 234 254 q 247 304 261 352 q 275 400 288 442 q 302 484 314 515 q 328 552 331 572 q 334 591 328 598 q 323 605 310 602 q 296 598 278 589 q 259 580 238 566 q 216 553 194 541 q 140 511 96 510 q 52 509 22 528 q -8 547 -22 579 q -37 611 -32 647 q -30 663 -26 670 q -22 676 -18 675 q -13 674 -8 668 q -3 662 0 654 q 9 632 32 625 q 56 618 88 620 q 120 623 158 632 q 196 641 235 652 q 274 664 310 675 q 347 686 376 691 q 422 699 451 686 q 480 674 476 641 q 473 624 462 588 q 450 552 434 503 q 417 454 398 396 q 379 339 360 278 q 368 280 374 278 q 430 314 482 360 q 533 407 580 458 q 626 510 668 564 q 711 618 749 670 q 757 680 768 670 q 780 660 790 642 q 799 623 804 602 q 808 581 802 570 q 723 463 625 375 q 527 287 411 221 q 435 166 466 102 q 498 38 538 -22 q 577 -83 624 -134 q 672 -186 727 -218 q 782 -250 844 -256 q 907 -261 977 -230 q 985 -227 992 -229 q 998 -231 1000 -236 q 1003 -240 1001 -246 q 999 -252 991 -256 q 898 -311 820 -318 q 742 -326 677 -299 q 612 -272 560 -218 q 507 -165 466 -98 q 424 -30 393 44 q 362 117 339 184 q 337 182 331 180 q 312 111 300 48 q 288 -14 288 -62 z"},"R":{"x_min":0,"x_max":572,"ha":572,"o":"m 106 330 q 108 316 102 312 q 95 309 78 314 q 48 322 32 347 q 16 372 13 403 q 10 434 19 465 q 28 496 48 517 q 85 571 148 608 q 211 646 284 666 q 357 685 432 688 q 507 690 568 674 q 630 658 671 624 q 712 591 716 539 q 720 494 696 442 q 671 391 628 345 q 586 299 529 265 q 472 231 411 221 q 434 166 466 102 q 498 39 538 -22 q 577 -82 624 -134 q 671 -186 726 -218 q 781 -249 844 -255 q 907 -261 977 -230 q 985 -227 992 -229 q 998 -231 1000 -236 q 1003 -240 1001 -246 q 999 -252 991 -256 q 901 -309 826 -318 q 750 -326 686 -302 q 623 -279 571 -230 q 519 -180 478 -117 q 436 -54 404 17 q 373 88 349 154 q 332 72 325 8 q 318 -57 323 -94 q 320 -101 303 -98 q 286 -95 267 -88 q 248 -80 232 -70 q 217 -60 217 -52 q 213 17 223 90 q 233 163 250 234 q 220 245 199 268 q 178 291 173 334 q 172 344 174 356 q 175 368 178 374 q 181 381 185 379 q 189 377 194 359 q 199 335 216 319 q 233 303 265 295 q 286 372 306 434 q 327 496 338 533 q 342 539 357 532 q 372 525 388 513 q 405 501 418 488 q 430 474 429 467 q 402 378 381 293 l 396 295 q 438 304 476 327 q 514 350 543 382 q 572 414 590 452 q 607 491 609 532 q 610 565 598 584 q 586 602 567 610 q 548 618 526 618 q 504 619 485 617 q 422 610 356 586 q 291 562 237 524 q 183 487 147 438 q 111 388 106 330 z"},"T":{"x_min":0,"x_max":414,"ha":414,"o":"m 353 501 q 357 507 372 500 q 386 493 402 481 q 417 469 428 456 q 439 442 438 435 q 404 347 377 266 q 350 186 332 117 q 313 48 304 -6 q 294 -60 295 -94 q 291 -101 274 -98 q 258 -95 240 -88 q 222 -80 208 -70 q 193 -60 193 -52 q 196 29 216 111 q 236 193 262 267 q 287 341 313 402 q 339 463 353 501 z m 46 298 q 29 292 24 312 q 18 332 22 362 q 25 391 38 423 q 50 455 68 473 q 86 496 124 523 q 163 550 215 576 q 267 602 330 626 q 392 649 456 666 q 521 683 584 690 q 648 698 702 692 q 757 687 800 666 q 842 645 865 604 q 871 596 872 580 q 874 564 872 550 q 869 536 864 528 q 859 520 853 528 q 844 562 822 580 q 799 599 770 606 q 742 614 712 614 q 681 615 655 614 q 586 612 508 587 q 431 562 354 522 q 278 483 208 434 q 138 385 84 335 q 73 326 64 316 q 54 307 46 298 z"},"P":{"x_min":0,"x_max":610,"ha":610,"o":"m 338 533 q 342 539 357 532 q 372 525 388 513 q 405 501 418 488 q 430 474 429 467 q 415 422 404 378 q 392 335 381 292 l 407 295 q 449 304 487 327 q 525 350 554 382 q 583 414 600 452 q 618 491 620 532 q 621 565 609 584 q 597 602 578 610 q 559 618 537 618 q 515 619 496 617 q 433 610 368 586 q 302 562 248 524 q 194 487 158 438 q 122 388 117 330 q 119 316 112 312 q 106 309 89 314 q 59 322 43 347 q 27 372 24 403 q 21 434 30 465 q 39 496 59 517 q 96 571 159 608 q 222 646 295 666 q 368 685 443 688 q 518 690 580 674 q 641 658 682 624 q 723 591 727 539 q 730 506 718 470 q 705 433 681 397 q 657 361 624 328 q 590 296 550 271 q 510 246 466 232 q 421 217 376 218 l 363 218 q 340 115 329 32 q 318 -50 323 -94 q 320 -101 303 -98 q 286 -95 267 -88 q 248 -80 232 -70 q 217 -60 217 -52 q 213 17 224 92 q 234 166 251 238 q 225 249 207 272 q 189 295 184 334 q 183 344 184 356 q 186 368 189 374 q 192 381 196 379 q 200 377 205 359 q 210 337 224 322 q 239 306 266 298 q 286 374 306 436 q 327 497 338 533 z"},"t":{"x_min":0,"x_max":191,"ha":191,"o":"m 110 67 q 100 40 100 28 q 101 17 108 16 q 114 16 126 24 q 137 32 149 44 q 161 55 171 68 q 181 81 186 90 q 208 128 226 165 q 244 202 253 222 q 259 229 266 230 q 273 232 279 229 q 285 226 288 219 q 292 212 290 203 q 274 168 258 134 q 242 101 225 69 q 218 57 205 37 q 192 17 175 -2 q 158 -21 138 -35 q 118 -49 97 -49 q 63 -49 46 -30 q 29 -12 24 15 q 19 42 22 72 q 26 102 32 125 q 36 140 42 162 q 48 183 56 214 q 64 244 74 286 q 84 328 97 384 q 82 385 74 393 q 66 401 64 412 q 61 424 62 437 q 64 450 69 461 q 81 459 92 458 q 103 458 117 458 l 143 554 q 156 557 170 556 q 183 556 197 551 q 214 544 222 530 q 229 515 228 497 q 227 486 225 478 q 223 470 221 462 q 239 463 248 460 q 256 456 258 450 q 261 443 260 434 q 258 425 258 416 q 258 408 254 398 q 250 388 245 377 q 230 384 220 384 q 211 385 197 384 q 171 291 156 234 q 140 176 131 142 q 122 108 118 92 q 113 76 110 67 z"},"M":{"x_min":0,"x_max":1100,"ha":1100,"o":"m 1120 678 q 1131 676 1146 666 q 1160 656 1172 643 q 1185 630 1193 616 q 1201 601 1200 591 q 1154 499 1120 410 q 1085 322 1062 234 q 1039 145 1028 54 q 1017 -37 1019 -134 q 1019 -145 1020 -152 q 1020 -160 1018 -164 q 1017 -168 1010 -167 q 1004 -166 991 -159 q 977 -153 963 -143 q 949 -133 938 -122 q 927 -110 920 -98 q 914 -86 914 -76 q 913 7 922 84 q 932 160 950 232 q 968 304 992 374 q 1017 443 1046 514 q 1001 449 957 369 q 913 289 874 208 q 834 128 800 54 q 767 -20 743 -72 q 744 -87 740 -92 q 737 -96 715 -85 q 701 -79 687 -69 q 673 -59 662 -48 q 651 -36 644 -24 q 638 -12 638 -2 q 637 76 646 142 q 654 207 670 266 q 685 324 706 380 q 728 435 754 493 q 704 425 652 346 q 601 268 554 191 q 508 114 470 44 q 431 -25 407 -76 q 409 -94 398 -92 q 386 -89 366 -85 q 353 -82 339 -73 q 325 -64 314 -52 q 302 -40 294 -26 q 287 -11 287 3 q 310 99 330 170 q 351 242 368 295 q 386 348 402 386 q 418 424 432 454 q 447 484 460 509 q 472 534 484 562 q 498 596 506 614 q 514 631 513 635 q 512 639 501 632 q 490 624 466 608 q 427 582 394 554 q 360 525 324 500 q 288 475 247 459 q 206 443 153 443 q 129 443 104 449 q 79 455 59 468 q 39 481 26 503 q 14 525 14 557 q 14 576 16 582 q 18 589 22 588 q 25 588 28 582 q 32 577 35 574 q 83 522 242 555 q 272 562 306 580 q 341 599 378 622 q 415 644 452 666 q 490 689 526 704 q 542 710 562 701 q 583 692 600 677 q 618 662 628 645 q 637 628 632 616 q 623 599 609 566 q 595 533 578 490 q 560 447 541 396 q 522 345 503 292 q 484 240 466 188 q 449 136 436 90 q 472 158 518 238 q 564 318 616 398 q 669 477 725 549 q 781 621 835 674 q 835 675 837 679 l 840 679 l 841 680 l 841 678 q 852 676 866 666 q 881 656 894 643 q 906 630 914 616 q 922 601 921 591 q 882 513 852 446 q 821 380 799 316 q 777 253 764 189 q 750 125 745 53 q 771 119 810 202 q 848 286 896 372 q 943 457 998 536 q 1054 616 1114 674 q 1114 675 1116 679 l 1119 679 l 1120 680 z"},"g":{"x_min":0,"x_max":356,"ha":356,"o":"m 302 196 q 316 185 320 176 q 323 166 323 147 q 323 139 323 134 q 323 128 322 121 q 320 114 317 102 q 314 91 309 71 q 342 100 370 136 q 397 172 419 220 q 421 225 428 224 q 435 223 442 220 q 449 216 454 210 q 459 205 456 200 q 430 137 386 84 q 341 32 290 -8 q 275 -55 256 -102 q 236 -149 207 -197 q 198 -213 184 -228 q 169 -244 152 -256 q 135 -269 116 -277 q 96 -285 75 -285 q 46 -285 28 -270 q 10 -256 2 -234 q -6 -212 -4 -188 q -2 -163 11 -142 q 21 -125 36 -110 q 52 -96 74 -82 q 95 -68 122 -52 q 148 -37 181 -18 q 184 -12 186 -5 q 188 2 190 9 q 169 -10 142 -24 q 116 -38 84 -38 q 42 -38 22 -8 q 2 21 2 65 q 2 84 6 106 q 10 127 18 146 q 28 169 48 200 q 67 230 95 257 q 123 284 160 302 q 196 319 241 318 q 260 317 274 308 q 289 298 299 284 q 309 270 314 254 q 318 238 317 225 q 316 215 307 211 q 298 207 288 208 q 278 208 270 213 q 262 218 263 227 q 263 230 263 236 q 263 241 261 246 q 259 252 255 256 q 251 260 244 259 q 215 257 188 234 q 161 210 140 176 q 119 143 106 106 q 94 70 94 42 q 94 24 104 20 q 114 15 130 22 l 129 22 q 154 38 176 62 q 199 86 220 122 q 226 141 230 152 q 234 164 236 170 q 239 177 240 180 q 240 184 239 188 q 238 196 246 200 q 254 203 264 204 q 275 204 286 202 q 297 199 302 196 z m 58 -165 q 43 -186 45 -198 q 47 -209 58 -210 q 69 -212 84 -204 q 100 -195 112 -177 q 139 -134 159 -87 q 127 -106 100 -126 q 72 -145 58 -165 z"},"j":{"x_min":0,"x_max":149,"ha":149,"o":"m 147 259 q 147 219 138 170 q 128 120 120 77 q 137 92 150 108 q 163 123 174 140 q 184 157 194 176 q 203 196 214 220 q 217 224 224 224 q 231 223 238 219 q 244 215 249 210 q 254 205 252 200 q 226 138 189 85 q 152 32 110 -10 q 102 -67 94 -112 q 87 -157 72 -205 q 67 -221 58 -237 q 49 -253 36 -266 q 23 -278 7 -286 q -9 -294 -28 -294 q -63 -294 -81 -269 q -99 -244 -107 -210 q -113 -182 -104 -156 q -95 -130 -78 -106 q -60 -83 -36 -62 q -12 -41 12 -23 l 10 -23 q 11 -18 14 8 q 18 33 24 68 q 29 102 36 141 q 42 180 47 214 q 52 249 55 272 q 58 296 58 300 q 57 308 66 312 q 76 315 90 315 q 104 315 115 311 q 133 304 140 290 q 147 276 147 259 z m -18 -184 q -10 -161 -4 -140 q 1 -119 5 -93 q -21 -112 -33 -133 q -45 -154 -54 -174 q -56 -179 -58 -187 q -60 -195 -59 -203 q -56 -212 -50 -214 q -45 -216 -39 -213 q -33 -210 -27 -202 q -21 -194 -18 -184 z m 80 389 q 80 394 80 399 q 81 404 82 409 q 87 438 106 458 q 125 478 147 478 q 168 478 180 462 q 192 447 192 424 q 192 419 192 414 q 191 409 190 404 q 185 375 166 356 q 147 336 124 336 q 104 336 92 351 q 80 366 80 389 z"},"i":{"x_min":0,"x_max":157,"ha":157,"o":"m 66 300 q 64 308 74 312 q 83 315 97 315 q 111 315 122 311 q 140 304 147 290 q 154 276 154 259 q 154 248 152 238 q 150 227 148 219 l 105 56 q 99 33 100 25 q 101 17 106 18 q 110 20 118 30 q 125 39 134 50 q 142 62 149 73 q 156 84 160 90 l 159 90 q 180 128 197 164 q 214 201 222 221 q 228 229 235 230 q 242 232 248 228 q 254 225 258 218 q 261 211 260 201 l 254 188 q 245 167 230 133 q 214 99 194 60 q 185 45 172 24 q 160 2 144 -16 q 129 -33 112 -42 q 95 -52 77 -44 q 45 -28 30 -1 q 14 26 14 57 q 14 65 15 72 q 16 79 18 87 l 32 151 q 38 173 44 198 q 50 223 55 244 q 60 265 63 280 q 66 296 66 300 z m 81 389 q 81 394 82 399 q 82 404 83 409 q 88 438 108 458 q 127 478 148 478 q 169 478 181 462 q 193 447 193 424 q 193 419 192 414 q 192 409 191 404 q 186 375 167 356 q 148 336 125 336 q 105 336 93 351 q 81 366 81 389 z"},"y":{"x_min":0,"x_max":320,"ha":320,"o":"m 67 300 q 66 308 76 312 q 85 315 99 315 q 105 315 112 314 q 118 313 123 311 q 142 304 148 289 q 155 274 155 256 q 155 251 154 244 q 153 238 148 218 q 142 198 131 160 q 120 122 100 56 q 94 35 94 23 q 94 15 100 19 q 106 23 116 34 q 125 44 136 59 q 146 74 155 90 q 173 123 190 158 q 206 194 217 222 l 216 222 q 224 249 229 270 q 234 292 234 296 q 232 304 242 308 q 251 312 265 312 q 271 312 278 311 q 285 310 291 308 q 308 301 315 286 q 322 271 322 253 q 322 234 317 216 q 312 196 308 180 q 304 163 300 147 q 296 131 291 114 q 286 97 279 75 q 311 104 338 140 q 365 175 385 220 q 387 225 394 224 q 401 223 408 220 q 415 216 420 210 q 425 205 422 200 q 396 135 352 83 q 307 31 252 -9 l 254 -9 q 235 -62 214 -112 q 194 -162 174 -197 q 164 -213 150 -228 q 136 -244 118 -256 q 101 -269 82 -277 q 62 -285 42 -285 q 23 -285 6 -278 q -17 -269 -28 -246 q -38 -224 -38 -199 q -38 -166 -22 -142 q -4 -116 25 -98 q 54 -80 97 -58 q 109 -51 124 -44 q 139 -36 151 -30 l 148 -30 q 151 -23 153 -14 q 155 -5 157 6 l 157 5 l 157 6 l 157 7 l 157 8 q 148 -4 138 -14 q 127 -25 116 -32 q 105 -39 93 -40 q 81 -42 69 -37 q 33 -20 22 4 q 10 28 10 57 q 10 79 16 102 q 21 125 29 149 l 33 161 l 32 161 q 38 181 44 204 q 50 227 56 248 q 61 268 64 282 q 67 297 67 300 z m 29 -207 q 41 -207 54 -200 q 68 -193 79 -177 l 78 -177 q 101 -140 123 -88 q 91 -106 64 -126 q 38 -145 24 -165 q 12 -185 12 -196 q 12 -207 29 -207 z"},"p":{"x_min":0,"x_max":350,"ha":350,"o":"m 136 317 q 152 311 157 298 q 162 286 162 272 l 162 266 q 182 286 204 300 q 226 313 252 313 q 302 312 326 278 q 350 243 350 194 q 350 174 346 154 q 343 133 335 112 l 310 62 q 337 88 360 128 q 384 167 413 221 q 420 230 428 232 q 437 233 444 228 q 450 224 452 216 q 455 208 450 198 q 426 154 404 116 q 382 79 359 50 q 336 20 310 0 q 283 -21 249 -31 q 237 -34 222 -36 q 207 -39 191 -39 q 167 -39 148 -33 q 118 -21 103 2 q 95 -33 86 -70 q 78 -108 71 -144 q 64 -179 60 -209 q 55 -239 55 -259 q 55 -262 56 -264 q 56 -267 56 -269 q 57 -283 52 -292 q 48 -300 23 -300 q -9 -300 -24 -285 q -38 -270 -38 -241 q -39 -211 -34 -172 q -28 -134 -20 -92 q -11 -49 0 -4 q 12 40 23 83 q 32 117 40 150 q 48 184 55 214 q 62 243 66 267 q 70 291 70 307 q 70 315 82 318 q 93 322 108 322 q 122 322 135 317 z m 120 71 q 122 56 128 43 q 134 30 151 29 q 170 27 189 47 q 208 67 224 94 q 241 121 253 148 q 265 175 270 189 q 278 215 278 232 q 278 263 246 263 q 220 261 199 240 q 178 220 158 196 l 147 183 l 148 183 z"},"X":{"x_min":0,"x_max":555,"ha":555,"o":"m 185 658 q 181 669 196 678 q 210 686 230 690 q 250 695 270 694 q 291 693 300 685 q 333 606 356 529 q 378 452 398 377 q 479 457 554 540 q 628 624 683 721 q 691 731 700 719 q 710 707 717 686 q 724 666 726 643 q 729 620 723 609 q 660 509 584 426 q 508 342 427 261 q 450 170 478 84 q 505 -3 550 -88 q 555 -98 540 -102 q 526 -105 504 -104 q 483 -103 461 -98 q 439 -94 429 -88 q 397 -30 374 34 q 352 99 332 168 q 250 87 172 0 q 94 -86 29 -191 q 20 -199 12 -186 q 5 -172 0 -150 q -4 -129 -6 -106 q -7 -84 -3 -73 q 56 27 136 114 q 215 200 302 284 q 277 379 250 474 q 224 568 185 658 z"},"Y":{"x_min":0,"x_max":704,"ha":704,"o":"m 739 690 q 750 690 765 680 q 780 671 793 658 q 806 644 814 628 q 823 613 821 602 q 789 538 757 456 q 725 375 696 284 q 666 194 641 98 q 616 2 598 -90 q 580 -183 570 -268 q 561 -352 564 -420 q 549 -419 530 -410 q 511 -400 495 -386 q 479 -373 468 -358 q 457 -342 457 -329 q 457 -265 468 -190 q 478 -114 496 -32 q 474 -62 444 -82 q 413 -102 374 -94 q 354 -89 333 -70 q 312 -52 295 -35 q 256 6 250 66 q 244 127 258 198 q 273 269 300 348 q 326 426 352 503 q 364 540 366 560 q 368 579 361 585 q 354 591 340 586 q 326 582 308 572 q 289 562 266 549 q 244 536 220 526 q 170 491 132 489 q 93 487 66 506 q 40 524 26 558 q 11 591 10 628 q 9 655 17 656 q 25 656 37 642 q 60 615 100 612 q 139 610 186 620 q 233 630 282 646 q 332 662 375 670 q 418 678 450 672 q 482 667 494 635 q 500 618 494 587 q 489 556 476 516 q 464 475 448 427 q 431 379 414 330 q 397 280 382 232 q 368 183 360 140 q 352 97 354 62 q 356 27 371 6 q 385 -13 398 -18 q 410 -22 422 -18 q 433 -13 442 -2 q 452 10 460 24 q 469 38 476 52 q 482 65 487 73 q 509 114 526 148 q 543 183 556 214 q 569 246 580 274 q 591 303 601 332 q 636 435 672 526 q 707 618 739 690 z"},"c":{"x_min":0,"x_max":294,"ha":294,"o":"m 311 227 q 312 216 304 210 q 295 205 285 205 q 274 205 266 210 q 257 215 255 226 q 253 243 245 250 q 237 258 227 258 q 213 258 197 244 q 174 226 157 208 q 140 190 128 170 q 115 151 106 130 q 98 108 92 81 q 88 68 88 58 q 88 38 98 26 q 107 15 122 10 q 137 5 154 6 q 172 7 188 12 q 216 23 243 46 q 270 68 292 96 q 315 124 330 154 q 346 185 352 211 q 356 222 364 226 q 371 231 378 230 q 386 228 390 222 q 395 215 394 205 q 388 165 364 119 q 339 73 301 34 q 263 -4 214 -28 q 166 -53 111 -51 q 54 -49 20 -20 q -13 8 -13 67 q -13 72 -12 77 q -12 82 -11 87 q -5 118 10 152 q 25 185 46 215 q 67 245 94 269 q 120 293 149 307 q 162 312 177 316 q 192 320 206 320 q 226 320 246 314 q 265 309 280 298 q 295 286 304 268 q 312 251 311 227 z"},"6":{"x_min":0,"x_max":813,"ha":813,"o":""},"r":{"x_min":0,"x_max":233,"ha":233,"o":"m 141 302 q 138 286 134 276 q 130 265 124 245 q 139 241 152 241 q 166 241 183 236 q 201 229 208 215 q 215 201 215 184 q 215 172 213 162 q 211 151 208 142 q 192 97 186 79 q 181 61 179 56 q 173 32 174 24 q 174 15 179 17 q 184 19 192 28 q 200 37 208 49 q 216 61 223 72 q 230 84 234 90 q 244 109 254 128 q 264 148 272 166 q 280 183 286 198 q 293 213 297 222 q 303 229 310 230 q 317 232 323 229 q 329 226 332 218 q 336 211 334 202 q 330 192 324 177 q 317 162 310 144 q 302 127 293 108 q 284 89 275 71 q 264 51 250 28 q 236 5 220 -14 q 205 -33 188 -42 q 170 -52 151 -44 q 115 -27 102 0 q 89 28 89 57 q 89 91 100 124 q 112 156 120 191 q 102 192 85 196 q 68 201 54 211 q 41 221 32 236 q 24 252 24 274 q 24 286 28 300 q 31 315 38 329 q 45 343 56 354 q 67 365 83 370 q 96 374 108 370 q 120 365 128 355 q 136 345 140 331 q 144 317 141 302 z"},"2":{"x_min":0,"x_max":813,"ha":813,"o":""},"9":{"x_min":0,"x_max":813,"ha":813,"o":""}," ":{"x_min":0,"x_max":146,"ha":146,"o":""},"I":{"x_min":0,"x_max":453,"ha":453,"o":"m 573 534 q 518 444 472 357 q 427 270 396 187 q 364 104 348 26 q 331 -52 335 -124 q 335 -133 336 -140 q 336 -146 334 -149 q 332 -152 326 -150 q 320 -148 307 -140 q 284 -126 266 -102 q 248 -79 242 -59 q 228 -11 245 62 q 262 135 298 221 q 334 307 382 401 q 431 495 481 586 q 485 595 492 608 q 499 620 506 634 q 512 648 516 662 q 521 677 521 691 q 520 716 489 709 q 458 702 412 674 q 365 646 311 602 q 257 559 210 511 q 163 463 130 416 q 97 368 94 332 q 93 320 78 326 q 62 333 46 350 q 29 368 19 393 q 9 418 18 443 q 39 499 84 550 q 128 600 184 642 q 241 684 304 717 q 367 750 426 773 q 444 780 468 784 q 491 787 515 786 q 539 784 562 778 q 585 771 602 758 q 620 746 630 727 q 640 708 638 682 q 637 665 631 645 q 625 625 616 604 q 607 584 596 566 q 584 548 574 535 z"},"H":{"x_min":0,"x_max":761,"ha":761,"o":"m 784 687 q 795 687 810 678 q 825 668 838 654 q 851 641 860 626 q 869 610 868 599 q 832 527 802 458 q 772 390 749 321 q 753 321 757 320 q 761 320 766 320 q 776 318 788 314 q 800 311 799 298 q 795 287 788 282 q 780 277 771 276 q 762 274 752 274 q 743 275 734 276 q 705 181 690 85 q 676 -11 678 -117 q 678 -128 678 -136 q 679 -143 678 -147 q 676 -151 670 -150 q 663 -149 650 -142 q 636 -136 622 -126 q 608 -116 597 -104 q 586 -93 580 -81 q 573 -69 573 -59 q 571 32 584 113 q 596 194 619 271 q 505 261 390 230 q 366 148 350 72 q 333 -5 334 -62 q 331 -74 330 -84 q 330 -94 328 -100 q 326 -105 320 -104 q 314 -104 301 -94 q 262 -65 242 -41 q 223 -17 231 9 q 233 39 242 87 q 250 135 263 192 l 197 167 q 193 166 186 162 q 180 159 174 157 q 168 155 164 156 q 159 157 159 164 q 159 198 172 216 q 186 235 205 240 q 224 248 243 254 q 262 261 282 268 q 300 339 320 404 q 341 470 358 515 q 380 570 376 588 q 372 607 352 604 q 331 601 300 584 q 268 566 235 547 q 181 517 138 516 q 94 514 65 531 q 36 548 22 580 q 8 611 13 647 q 15 663 19 670 q 23 676 28 675 q 32 674 36 668 q 41 662 45 654 q 54 632 78 625 q 101 618 133 620 q 165 623 202 632 q 240 641 278 652 q 317 664 354 675 q 390 686 419 691 q 466 699 495 686 q 524 674 519 641 q 516 624 506 590 q 495 557 480 512 q 465 467 448 413 q 430 359 412 302 q 468 313 524 318 q 579 324 636 325 q 666 415 704 503 q 742 591 784 687 z"},"4":{"x_min":0,"x_max":813,"ha":813,"o":""},"D":{"x_min":0,"x_max":679,"ha":679,"o":"m 338 533 q 342 539 357 532 q 372 525 388 513 q 405 501 418 488 q 430 474 429 467 q 407 381 388 312 q 370 244 358 189 q 345 134 339 90 q 333 47 335 12 q 332 5 315 8 q 298 11 279 18 q 260 26 244 36 q 229 46 229 54 q 231 135 246 206 q 262 276 281 336 q 300 396 316 446 q 333 495 338 533 z m 54 35 q 55 41 60 54 q 65 68 72 78 q 78 88 84 89 q 91 90 96 70 q 104 34 124 13 q 145 -8 172 -18 q 200 -27 232 -26 q 265 -24 298 -16 q 331 -8 362 6 q 392 19 415 35 q 452 61 484 100 q 516 139 541 185 q 566 231 584 281 q 601 331 609 380 q 617 429 615 474 q 613 519 600 555 q 586 593 544 603 q 501 613 445 602 q 389 591 329 564 q 269 536 219 500 q 169 464 138 423 q 108 382 112 345 q 114 334 108 331 q 103 328 94 329 q 85 330 76 334 q 66 338 60 341 q 36 353 26 376 q 15 398 16 424 q 17 449 28 474 q 38 498 55 515 q 101 568 168 603 q 236 638 310 655 q 384 672 456 672 q 528 671 584 652 q 642 632 671 578 q 700 525 703 453 q 706 381 686 298 q 665 216 624 138 q 583 61 524 -4 q 466 -69 393 -105 q 356 -123 314 -132 q 271 -141 230 -140 q 188 -138 152 -127 q 115 -116 90 -94 q 64 -72 54 -40 q 43 -8 54 35 z"},"0":{"x_min":0,"x_max":813,"ha":813,"o":""},"F":{"x_min":0,"x_max":521,"ha":521,"o":"m 46 298 q 29 292 24 312 q 18 332 22 362 q 25 391 38 423 q 50 455 68 473 q 86 496 124 523 q 163 550 215 576 q 267 602 330 626 q 392 649 456 666 q 521 683 584 690 q 648 698 702 692 q 757 687 800 666 q 842 645 865 604 q 871 596 872 580 q 874 564 872 550 q 869 536 864 528 q 859 520 853 528 q 844 562 822 580 q 799 599 770 606 q 742 614 712 614 q 681 615 655 614 q 586 612 508 587 q 431 562 354 522 q 278 483 208 434 q 138 385 84 335 q 73 326 64 316 q 54 307 46 298 z m 353 501 q 357 507 372 500 q 386 493 402 481 q 417 469 428 456 q 439 442 438 435 q 430 415 423 396 q 416 377 409 357 q 435 364 460 370 q 485 375 510 380 q 520 382 527 383 q 534 384 534 370 q 534 358 529 346 q 524 333 516 322 q 509 310 500 302 q 491 294 481 292 q 451 287 426 282 q 402 278 379 273 q 337 150 315 54 q 293 -42 295 -94 q 291 -101 274 -98 q 258 -95 240 -88 q 222 -80 208 -70 q 193 -60 193 -52 q 195 20 212 93 q 228 166 250 235 q 219 223 185 207 q 180 205 172 202 q 165 198 158 198 q 152 197 148 201 q 145 205 148 217 q 152 235 158 250 q 163 264 179 272 q 202 285 228 296 q 253 307 279 317 q 301 375 321 422 q 341 469 353 501 z"},"k":{"x_min":0,"x_max":310,"ha":310,"o":"m 179 214 q 160 199 148 183 q 136 167 130 154 q 123 141 120 131 q 117 121 117 118 l 109 91 q 102 69 95 40 q 88 11 88 -12 q 88 -23 89 -32 q 90 -40 94 -45 q 76 -48 58 -45 q 39 -42 24 -33 q 9 -24 1 -9 q -7 6 -3 28 q 1 44 8 70 q 14 96 22 126 q 30 155 38 184 q 46 212 52 235 q 63 281 80 328 q 96 376 118 421 q 141 466 169 506 q 197 547 230 580 q 258 606 285 606 q 306 606 319 588 q 332 571 333 545 q 330 501 316 461 q 302 421 280 388 q 259 354 230 329 q 200 304 166 291 q 164 288 162 282 q 160 276 158 269 q 155 262 153 256 q 151 251 150 250 q 167 264 190 277 q 213 290 236 290 q 263 290 276 273 q 289 256 289 227 q 289 207 283 186 q 277 164 264 144 q 252 123 234 106 q 215 89 190 79 l 192 79 q 195 77 202 72 q 208 66 218 60 q 227 55 238 51 q 248 47 258 47 q 271 47 284 56 q 297 66 310 92 q 327 125 345 161 q 363 197 374 220 q 378 227 386 228 q 393 230 400 226 q 406 223 410 216 q 415 210 412 201 q 405 181 388 144 q 371 108 353 71 l 345 60 l 346 60 q 337 45 325 24 q 313 2 298 -16 q 283 -33 266 -42 q 248 -52 229 -44 q 206 -34 185 -18 q 164 -1 148 18 q 132 38 123 58 q 114 78 116 95 q 119 107 129 116 q 140 129 150 140 q 161 150 170 158 q 183 170 193 180 q 203 190 205 198 q 213 220 202 223 q 192 226 180 214 z m 282 515 q 255 474 230 432 q 205 390 185 343 q 219 370 246 415 q 273 460 287 510 q 289 514 290 519 q 290 524 290 526 q 289 526 283 515 z"},"u":{"x_min":0,"x_max":320,"ha":320,"o":"m 71 309 q 70 315 77 318 q 84 321 96 321 q 105 321 116 318 q 127 315 136 308 q 146 301 152 291 q 159 281 159 266 q 159 255 155 238 q 151 220 140 185 l 101 56 q 94 36 94 23 q 94 15 100 19 q 107 23 116 34 q 125 45 136 60 q 147 75 156 90 q 168 113 180 137 q 193 161 201 181 q 206 200 210 220 q 215 240 218 256 q 222 272 224 284 q 226 295 225 298 q 224 306 234 310 q 243 314 257 314 q 263 314 270 313 q 276 312 281 310 q 301 302 309 288 q 317 275 317 256 q 317 248 316 242 q 315 235 313 227 q 311 223 308 209 q 304 195 299 177 q 294 159 289 139 q 284 119 279 102 q 274 84 271 72 q 268 59 267 56 q 261 32 261 23 q 261 16 266 20 q 272 23 281 34 q 290 44 300 59 q 311 74 322 90 q 342 128 358 164 q 375 201 384 221 q 389 228 396 230 q 404 231 410 228 q 416 225 420 218 q 423 212 422 203 l 415 186 q 405 164 392 132 q 378 101 361 69 q 350 50 336 27 q 323 4 308 -14 q 292 -33 274 -42 q 257 -52 239 -44 q 207 -30 194 -8 q 180 13 177 36 q 168 19 156 2 q 145 -15 132 -28 q 119 -40 104 -46 q 89 -51 73 -44 q 37 -27 24 0 q 11 28 11 57 q 11 68 14 84 q 17 100 22 119 q 27 138 32 158 q 38 178 44 198 q 55 234 64 265 q 72 296 71 309 z"},"U":{"x_min":0,"x_max":695,"ha":695,"o":"m 226 532 q 176 497 138 494 q 101 491 74 508 q 48 526 33 558 q 18 591 14 627 q 12 645 14 650 q 16 656 20 655 q 24 654 29 649 q 34 644 38 641 q 64 617 105 616 q 146 616 192 626 q 239 636 288 651 q 336 666 378 673 q 420 680 451 674 q 482 667 494 635 q 500 618 494 587 q 489 556 476 516 q 464 475 448 427 q 431 379 414 330 q 397 280 382 232 q 368 183 360 140 q 352 97 354 62 q 356 27 371 6 q 385 -13 398 -18 q 410 -22 422 -18 q 433 -13 442 -2 q 452 10 460 24 q 469 38 476 52 q 482 65 487 73 q 524 141 547 193 q 570 245 587 293 q 605 352 626 408 q 648 465 672 522 l 675 529 l 675 530 l 745 690 q 756 690 771 680 q 786 671 799 658 q 812 644 820 628 q 829 613 827 602 q 779 506 742 411 q 704 316 678 220 q 653 123 641 24 q 629 -74 633 -176 q 618 -175 599 -166 q 580 -156 564 -142 q 548 -129 537 -114 q 526 -98 526 -85 q 526 -26 532 30 l 526 17 q 516 -4 502 -26 q 487 -48 468 -65 q 449 -82 426 -91 q 402 -100 374 -94 q 354 -89 333 -70 q 312 -52 295 -35 q 256 6 250 66 q 244 127 258 198 q 273 269 300 348 q 326 426 352 503 q 364 540 366 560 q 369 580 363 586 q 357 593 344 589 q 330 585 312 576 q 294 567 272 554 q 250 542 226 532 z"},"o":{"x_min":0,"x_max":320,"ha":320,"o":"m 127 299 q 134 304 147 298 q 160 292 171 282 q 188 298 208 308 q 229 318 251 320 q 291 321 306 296 q 322 270 322 237 q 322 213 316 190 q 311 167 305 150 q 295 119 279 86 q 296 92 312 106 q 328 121 342 140 q 356 160 368 182 q 381 205 392 228 q 397 236 404 238 q 412 240 418 236 q 424 233 428 226 q 431 219 430 209 q 416 179 400 148 q 383 117 361 92 q 339 66 311 50 q 283 33 247 32 q 224 3 192 -18 q 161 -40 122 -42 q 90 -43 66 -34 q 43 -25 28 -8 q 13 8 6 31 q -2 54 -2 80 q -2 111 7 142 q 16 174 33 203 q 50 232 74 256 q 98 281 127 299 z m 180 161 q 182 126 192 108 q 203 90 231 84 q 242 100 250 120 q 259 140 267 160 q 271 169 276 188 q 281 208 281 229 q 281 246 275 259 q 269 272 252 272 q 238 272 224 259 q 211 246 201 228 q 191 210 186 192 q 180 173 180 161 z m 192 31 q 153 41 130 66 q 106 92 101 127 q 94 112 90 95 q 86 78 86 58 q 86 29 98 18 q 109 6 126 6 q 140 6 157 13 q 174 20 189 31 z"},"N":{"x_min":0,"x_max":833,"ha":833,"o":"m 842 678 q 853 675 867 665 q 881 655 893 642 q 905 629 912 615 q 920 601 919 591 q 873 499 838 410 q 804 322 781 234 q 758 145 747 54 q 736 -37 738 -134 q 738 -145 738 -152 q 739 -160 738 -164 q 736 -168 730 -167 q 723 -166 710 -159 q 696 -153 682 -143 q 668 -133 657 -122 q 646 -110 640 -98 q 633 -86 633 -76 q 632 5 641 80 q 650 154 667 224 q 684 295 708 364 q 732 432 760 501 q 709 433 657 354 q 605 274 558 196 q 510 117 470 46 q 431 -25 407 -76 q 408 -91 399 -91 q 394 -92 386 -90 q 377 -87 366 -85 q 353 -82 339 -73 q 325 -64 314 -52 q 302 -40 294 -26 q 287 -11 287 3 q 310 99 330 170 q 351 242 368 295 q 386 348 402 386 q 418 424 432 454 q 447 484 460 509 q 472 534 484 562 q 498 596 506 614 q 514 631 513 635 q 512 639 501 632 q 490 624 466 608 q 427 582 394 554 q 360 525 324 500 q 288 475 247 459 q 206 443 153 443 q 129 443 104 449 q 79 455 59 468 q 39 481 26 503 q 14 525 14 557 q 14 576 16 582 q 18 589 22 588 q 25 588 28 582 q 32 577 35 574 q 83 522 242 555 q 272 562 306 580 q 341 599 378 622 q 415 644 452 666 q 490 689 526 704 q 542 710 562 701 q 583 692 600 677 q 618 662 628 645 q 637 628 632 616 q 623 599 609 566 q 595 533 578 490 q 560 447 541 396 q 522 345 503 292 q 484 240 466 188 q 449 136 436 90 q 472 157 518 236 q 563 316 615 395 q 667 474 722 546 q 777 618 831 671 l 835 679 q 838 679 839 678 l 841 680 z"},"G":{"x_min":0,"x_max":529,"ha":529,"o":"m 412 147 q 418 156 435 160 q 452 165 470 164 q 488 164 502 158 q 516 152 516 141 q 501 82 482 9 q 462 -64 434 -136 q 406 -207 370 -269 q 333 -331 284 -368 q 257 -388 222 -394 q 188 -399 156 -389 q 124 -379 99 -354 q 74 -329 66 -289 q 63 -270 66 -256 q 68 -241 73 -234 q 78 -226 83 -226 q 88 -226 88 -235 q 91 -282 109 -307 q 127 -332 150 -340 q 174 -349 198 -343 q 223 -337 239 -321 q 268 -291 290 -253 q 312 -215 328 -172 q 345 -130 358 -85 q 370 -40 380 5 q 360 -22 339 -46 q 318 -70 294 -88 q 271 -105 244 -114 q 216 -124 185 -123 q 117 -121 80 -84 q 42 -48 29 10 q 16 67 25 140 q 34 213 60 288 q 86 362 126 433 q 167 504 216 558 q 266 612 322 643 q 378 674 435 670 q 491 665 524 642 q 558 618 572 583 q 586 548 582 506 q 579 464 562 422 q 546 381 518 344 q 491 306 456 282 q 446 273 436 272 q 427 271 422 275 q 416 279 416 286 q 417 293 428 300 q 442 310 460 335 q 477 360 492 392 q 507 424 516 459 q 525 494 522 524 q 519 553 501 572 q 483 592 444 593 q 413 594 378 568 q 343 542 308 498 q 274 455 242 399 q 209 343 184 283 q 160 223 146 164 q 131 105 132 56 q 132 8 150 -26 q 167 -60 207 -69 q 238 -76 264 -61 q 290 -46 314 -18 q 337 10 359 46 q 381 82 405 117 q 407 125 408 132 q 410 139 412 147 z"},"q":{"x_min":0,"x_max":356,"ha":356,"o":"m 314 220 q 313 208 304 204 q 295 201 285 202 q 275 204 267 210 q 259 217 261 226 q 262 229 262 235 q 262 241 260 246 q 259 252 255 256 q 251 260 244 259 q 226 258 208 246 q 189 234 172 215 q 155 196 140 173 q 126 150 116 127 q 94 72 94 42 q 94 25 104 20 q 113 15 129 22 q 155 39 179 63 q 203 87 220 113 q 225 132 230 146 q 235 161 237 185 q 239 197 253 200 q 267 202 282 197 q 298 192 311 181 q 324 170 324 155 q 324 131 317 107 q 310 83 305 59 q 341 94 369 132 q 397 171 417 221 q 424 230 432 230 q 439 230 445 226 q 451 221 454 213 q 456 205 452 197 q 435 155 412 120 q 389 85 361 53 l 330 21 q 322 13 310 4 q 298 -4 289 -13 l 290 -13 q 303 -56 302 -98 q 300 -139 283 -174 q 266 -209 234 -236 q 202 -263 155 -278 q 143 -281 131 -281 q 92 -281 82 -255 q 71 -229 96 -187 q 102 -178 112 -158 q 121 -138 134 -111 q 146 -84 160 -52 q 175 -21 190 12 q 169 -5 154 -16 q 138 -28 115 -34 q 101 -37 88 -37 q 46 -37 24 -10 q 2 18 2 65 q 2 109 20 154 q 39 200 71 237 q 103 274 147 296 q 191 319 241 318 q 265 317 280 306 q 295 296 303 281 q 311 266 313 250 q 315 233 314 220 z m 255 -68 q 242 -96 234 -115 q 225 -134 218 -150 q 210 -166 202 -182 q 194 -198 183 -219 q 193 -217 208 -204 q 222 -190 234 -169 q 247 -148 254 -122 q 261 -95 255 -68 z"},"d":{"x_min":0,"x_max":404,"ha":404,"o":"m 328 55 q 319 23 326 18 q 334 13 348 23 q 362 33 378 52 q 395 72 405 90 q 414 108 424 127 q 433 146 442 164 q 450 182 456 197 q 463 212 468 222 q 474 229 481 230 q 488 232 494 229 q 500 226 503 219 q 506 212 505 203 q 491 168 476 134 q 461 101 444 69 q 437 57 425 37 q 413 17 396 -2 q 380 -21 360 -35 q 341 -49 320 -49 q 315 -49 310 -48 q 304 -47 299 -45 q 285 -39 272 -29 q 260 -19 252 -6 q 243 8 239 24 q 235 41 237 60 q 211 28 181 2 q 151 -24 114 -34 q 106 -36 98 -37 q 90 -38 84 -38 q 42 -38 22 -8 q 1 21 1 65 q 1 84 6 105 q 10 126 18 146 q 27 169 45 200 q 63 231 91 258 q 119 285 156 303 q 194 321 242 318 q 267 316 286 304 q 295 348 304 390 q 314 433 321 467 q 328 501 332 522 q 337 542 337 543 q 338 550 345 554 q 352 557 362 558 q 371 559 380 558 q 389 556 394 554 q 408 548 415 538 q 422 527 424 514 q 426 502 424 488 q 423 474 420 462 l 378 282 l 350 156 q 344 131 338 106 q 333 81 328 55 z m 129 22 q 164 44 195 81 q 226 118 255 156 l 268 220 l 275 248 l 276 248 q 265 262 243 259 q 226 258 208 246 q 189 235 172 216 q 155 197 140 174 q 126 151 116 127 q 93 73 93 42 q 93 16 110 16 q 118 16 129 22 z"},"1":{"x_min":0,"x_max":813,"ha":813,"o":""},"5":{"x_min":0,"x_max":813,"ha":813,"o":""}}}
